<?xml version="1.0"?>
<svg xmlns="http://www.w3.org/2000/svg" xmlns:xlink="http://www.w3.org/1999/xlink" viewBox="0 0 512 512" width="512" height="512"><defs><linearGradient id="linear-gradient" x1="71.624" y1="463.203" x2="429.07" y2="105.757" gradientUnits="userSpaceOnUse"><stop offset="0" stop-color="#41dfd0"/><stop offset="1" stop-color="#ee83ef"/></linearGradient></defs><g id="gradient"><path d="M488,168H464V144a8,8,0,0,0-8-8H380.354l-9.271-30.9A23.845,23.845,0,0,0,348.1,88H259.9a23.845,23.845,0,0,0-22.983,17.1L218.048,168H149.316A38.112,38.112,0,0,0,120,144.478V136a24.028,24.028,0,0,0-24-24H64a24.028,24.028,0,0,0-24,24v10.684a38.162,38.162,0,0,0-22.451,24.6A7.949,7.949,0,0,0,16,176V396a28.032,28.032,0,0,0,28,28H264.67a144.008,144.008,0,0,0,94.66,0H468a28.032,28.032,0,0,0,28-28V176A8,8,0,0,0,488,168Zm-40-16v16H391.505c-.642-.427-1.282-.856-1.931-1.272L385.155,152ZM252.243,109.7A7.945,7.945,0,0,1,259.9,104h88.2a7.944,7.944,0,0,1,7.657,5.7l13.914,46.368A143.759,143.759,0,0,0,235.3,166.183ZM152,184h60.5a145.134,145.134,0,0,0-14.4,16H152Zm-8.572,62.971A119.329,119.329,0,0,0,151.233,216h36.1A143.718,143.718,0,0,0,198.1,376H136V285.541A103.4,103.4,0,0,1,143.428,246.971ZM56,136a8.009,8.009,0,0,1,8-8H96a8.009,8.009,0,0,1,8,8v8H56Zm64,149.541V408H44a12.013,12.013,0,0,1-12-12V352H56V336H32V320H56V304H32V288H56V272H32V182a22.025,22.025,0,0,1,22-22h60a22.025,22.025,0,0,1,22,22v20.459a103.4,103.4,0,0,1-7.428,38.57A119.332,119.332,0,0,0,120,285.541ZM136,408V392h76.5A145.044,145.044,0,0,0,232.5,408Zm176,8A128,128,0,1,1,440,288,128.145,128.145,0,0,1,312,416Zm168-20a12.013,12.013,0,0,1-12,12H391.505A145.044,145.044,0,0,0,411.5,392H480Zm0-20H425.9a143.718,143.718,0,0,0,10.77-160H480Zm0-176H425.9a145.134,145.134,0,0,0-14.4-16H480ZM346.072,342.2l8.529,13.537A80.021,80.021,0,0,1,244.268,245.4l13.537,8.53a64.243,64.243,0,0,0-9.446,40.861,64.009,64.009,0,0,0,56.851,56.851A64.225,64.225,0,0,0,346.072,342.2Zm33.66-11.594-13.537-8.53a64.243,64.243,0,0,0,9.446-40.861,64.009,64.009,0,0,0-56.851-56.851,64.219,64.219,0,0,0-40.862,9.446L269.4,220.268A80.021,80.021,0,0,1,379.732,330.6ZM344,288a32,32,0,1,0-32,32A32.036,32.036,0,0,0,344,288Zm-48,0a16,16,0,1,1,16,16A16.019,16.019,0,0,1,296,288Zm16-112A112,112,0,1,0,424,288,112.127,112.127,0,0,0,312,176Zm0,208a96,96,0,1,1,96-96A96.108,96.108,0,0,1,312,384ZM72,272H96v16H72Zm0,32H96v16H72Zm0,32H96v16H72Zm96,16H152V336h16Z" style="fill:url(#linear-gradient)"/></g></svg>
